<svg id="Layer_1" data-name="Layer 1" xmlns="http://www.w3.org/2000/svg" width="2in" height="2in" viewBox="0 0 144 144"><title>Artboard 1</title><path d="M21.3,71.7C20.9,45.1,43.5,22,69.8,21.3A50.7,50.7,0,1,1,21.3,71.7Zm9.9.1c.2,22.9,18.2,41.1,40.8,41s40.9-18.3,40.8-40.6a40.8,40.8,0,0,0-40.9-41C49.5,31.3,31.1,49.6,31.2,71.8Z" fill="#fff"/><path d="M31.2,71.8c-.1-22.2,18.3-40.5,40.7-40.6a40.8,40.8,0,0,1,40.9,41c.1,22.3-18.3,40.5-40.8,40.6S31.4,94.7,31.2,71.8ZM90.8,83.4c-2.5-2.4-4.7-5.1-7.4-7.1-5.2-4-7.2-8.9-6.4-15.4.5-4.6.1-9.3.1-14H66.9V73.2a2.7,2.7,0,0,0,.8,1.7L83.5,90.5Z" fill="none"/><path d="M90.8,83.4l-7.3,7.1L67.7,74.9a2.7,2.7,0,0,1-.8-1.7V46.9H77.1c0,4.7.4,9.4-.1,14-.8,6.5,1.2,11.4,6.4,15.4C86.1,78.3,88.3,81,90.8,83.4Z" fill="#fff"/></svg>